<svg data-v-2cb57da0="" version="1.0" xmlns="http://www.w3.org/2000/svg" xmlns:xlink="http://www.w3.org/1999/xlink" width="100%" height="100%" viewBox="0 0 340.000000 250.000000" preserveAspectRatio="xMidYMid meet" color-interpolation-filters="sRGB" style="margin: auto;"><g data-v-2cb57da0="" fill="#333" class="iconblsvg-g iconsvg" transform="translate(65.6792984008789,112.39930057525635)"><g class="tp-name"><g data-gra="path-name" transform="translate(0, 1.3785983730666995)"><g transform="scale(1)"><path d="M6.61-16.79L6.61-16.79Q7.99-16.79 8.73-16.5 9.48-16.2 10.01-15.88L10.01-15.88Q10.29-15.72 10.47-15.63 10.64-15.55 10.8-15.55L10.8-15.55Q11.18-15.55 11.32-16.58L11.32-16.58 11.85-16.58Q11.83-16.14 11.79-15.52 11.76-14.9 11.75-13.9 11.73-12.9 11.73-11.27L11.73-11.27 11.2-11.27Q11.11-12.48 10.64-13.62 10.17-14.76 9.32-15.49 8.47-16.23 7.24-16.23L7.24-16.23Q6.12-16.23 5.4-15.6 4.68-14.97 4.68-13.85L4.68-13.85Q4.68-12.92 5.15-12.26 5.61-11.59 6.51-10.97 7.4-10.34 8.68-9.45L8.68-9.45Q9.8-8.73 10.69-8.01 11.57-7.29 12.11-6.38 12.64-5.47 12.64-4.21L12.64-4.21Q12.64-2.68 11.84-1.68 11.04-0.68 9.73-0.17 8.43 0.33 6.87 0.33L6.87 0.33Q5.42 0.33 4.56 0.05 3.7-0.23 3.12-0.54L3.12-0.54Q2.61-0.86 2.33-0.86L2.33-0.86Q1.96-0.86 1.82 0.16L1.82 0.16 1.28 0.16Q1.33-0.4 1.34-1.14 1.35-1.89 1.36-3.08 1.37-4.28 1.37-6.12L1.37-6.12 1.91-6.12Q2-4.59 2.43-3.25 2.86-1.91 3.76-1.09 4.66-0.28 6.15-0.28L6.15-0.28Q7.36-0.28 8.2-0.93 9.03-1.58 9.03-2.89L9.03-2.89Q9.03-4.33 8.06-5.27 7.08-6.22 5.54-7.22L5.54-7.22Q4.45-7.94 3.49-8.66 2.54-9.38 1.97-10.31 1.4-11.25 1.4-12.53L1.4-12.53Q1.4-13.99 2.13-14.94 2.86-15.88 4.06-16.33 5.26-16.79 6.61-16.79ZM25.75-12.29L25.75-12.29 25.75-2.54Q25.75-1.49 26.08-0.99 26.4-0.49 27.24-0.49L27.24-0.49 27.24 0Q26.52-0.07 25.8-0.07L25.8-0.07Q24.82-0.07 23.98 0 23.14 0.07 22.4 0.26L22.4 0.26 22.4-1.84Q21.84-0.68 20.85-0.17 19.86 0.33 18.65 0.33L18.65 0.33Q17.67 0.33 17.07 0.07 16.46-0.19 16.11-0.58L16.11-0.58Q15.72-1.02 15.55-1.75 15.39-2.47 15.39-3.61L15.39-3.61 15.39-9.5Q15.39-10.55 15.08-11.05 14.76-11.55 13.9-11.55L13.9-11.55 13.9-12.04Q14.64-11.97 15.34-11.97L15.34-11.97Q16.32-11.97 17.17-12.05 18.02-12.13 18.74-12.29L18.74-12.29 18.74-2.65Q18.74-2.07 18.85-1.63 18.95-1.19 19.25-0.94 19.56-0.7 20.14-0.7L20.14-0.7Q21.07-0.7 21.73-1.48 22.4-2.26 22.4-3.4L22.4-3.4 22.4-9.5Q22.4-10.55 22.08-11.05 21.77-11.55 20.91-11.55L20.91-11.55 20.91-12.04Q21.65-11.97 22.35-11.97L22.35-11.97Q23.33-11.97 24.18-12.05 25.03-12.13 25.75-12.29ZM33.02-12.29L33.02-12.29 33.02 1.91Q33.02 3 33.57 3.36 34.13 3.73 35.11 3.73L35.11 3.73 35.11 4.21Q34.51 4.19 33.45 4.16 32.39 4.12 31.2 4.12L31.2 4.12Q30.34 4.12 29.51 4.16 28.68 4.19 28.27 4.21L28.27 4.21 28.27 3.73Q29.03 3.73 29.35 3.4 29.66 3.07 29.66 2.14L29.66 2.14 29.66-9.5Q29.66-10.55 29.34-11.05 29.01-11.55 28.17-11.55L28.17-11.55 28.17-12.04Q28.92-11.97 29.62-11.97L29.62-11.97Q30.57-11.97 31.43-12.05 32.29-12.13 33.02-12.29ZM36.62-12.36L36.62-12.36Q38.39-12.36 39.59-10.92 40.79-9.48 40.79-6.57L40.79-6.57Q40.79-4.31 40.12-2.77 39.44-1.23 38.24-0.45 37.04 0.33 35.39 0.33L35.39 0.33Q34.48 0.33 33.74 0.01 32.99-0.3 32.6-0.88L32.6-0.88 32.83-1.19Q33.06-0.77 33.49-0.54 33.92-0.3 34.48-0.3L34.48-0.3Q35.53-0.3 36.14-1.01 36.74-1.72 37.01-3.02 37.28-4.31 37.28-6.1L37.28-6.1Q37.28-8.1 37.02-9.24 36.76-10.38 36.32-10.87 35.88-11.36 35.25-11.36L35.25-11.36Q34.41-11.36 33.73-10.71 33.04-10.06 32.95-8.85L32.95-8.85 32.83-9.66Q33.25-10.99 34.26-11.68 35.27-12.36 36.62-12.36ZM48.24-12.36L48.24-12.36Q50.29-12.36 51.46-11.15 52.62-9.94 52.62-7.19L52.62-7.19 44.96-7.19 44.91-7.64 49.69-7.64Q49.71-8.78 49.55-9.74 49.38-10.71 49.03-11.29 48.68-11.87 48.1-11.87L48.1-11.87Q47.29-11.87 46.72-10.85 46.15-9.83 46.03-7.45L46.03-7.45 46.1-7.31Q46.08-7.03 46.07-6.73 46.05-6.43 46.05-6.1L46.05-6.1Q46.05-4.49 46.51-3.49 46.96-2.49 47.66-2.04 48.36-1.58 49.08-1.58L49.08-1.58Q49.78-1.58 50.61-1.93 51.43-2.28 52.15-3.45L52.15-3.45 52.57-3.31Q52.29-2.42 51.69-1.58 51.08-0.75 50.15-0.21 49.22 0.33 47.92 0.33L47.92 0.33Q46.33 0.33 45.12-0.35 43.91-1.02 43.22-2.4 42.54-3.77 42.54-5.89L42.54-5.89Q42.54-8.06 43.27-9.5 44-10.94 45.3-11.65 46.59-12.36 48.24-12.36ZM61.84-12.36L61.84-12.36Q62.58-12.36 63.05-12.05 63.52-11.73 63.74-11.25 63.96-10.76 63.96-10.22L63.96-10.22Q63.96-9.36 63.46-8.81 62.96-8.27 62.14-8.27L62.14-8.27Q61.33-8.27 60.87-8.67 60.42-9.08 60.42-9.76L60.42-9.76Q60.42-10.41 60.71-10.84 61-11.27 61.44-11.57L61.44-11.57Q61.12-11.66 60.79-11.55L60.79-11.55Q60.19-11.46 59.71-10.98 59.23-10.5 58.95-9.85 58.67-9.2 58.67-8.57L58.67-8.57 58.67-2.4Q58.67-1.28 59.22-0.88 59.77-0.49 60.86-0.49L60.86-0.49 60.86 0Q60.33-0.02 59.3-0.06 58.28-0.09 57.16-0.09L57.16-0.09Q56.23-0.09 55.27-0.06 54.32-0.02 53.83 0L53.83 0 53.83-0.49Q54.64-0.49 54.98-0.84 55.32-1.19 55.32-2.17L55.32-2.17 55.32-9.5Q55.32-10.55 55.01-11.05 54.69-11.55 53.83-11.55L53.83-11.55 53.83-12.04Q54.58-11.97 55.27-11.97L55.27-11.97Q56.25-11.97 57.1-12.05 57.95-12.13 58.67-12.29L58.67-12.29 58.67-10.13Q58.95-10.76 59.42-11.27 59.88-11.78 60.49-12.07 61.09-12.36 61.84-12.36Z" transform="translate(-1.2799999713897705, 18.229999542236328)"></path></g></g> <g transform="translate(65.68000030517578, 0)"><g><g class="imagesvg"><g><rect fill="#333" fill-opacity="0" stroke-width="2" x="0" y="0" width="25.20139697322468" height="25.20139697322468" class="image-rect"></rect> <svg x="0" y="0" width="25.20139697322468" height="25.20139697322468" filtersec="colorsb1085980114" class="image-svg-svg primary" style="overflow: visible;"><svg xmlns="http://www.w3.org/2000/svg" viewBox="0 -0.0401301346719265 538.4000244140625 538.4000854492188"><path d="M269.2 239.28a29.92 29.92 0 1 0 29.91 29.92 29.92 29.92 0 0 0-29.91-29.92z" fill="#5458b3"></path><path d="M458.67 180.05a91.79 91.79 0 0 0-10-.59 89.76 89.76 0 0 0-89.74 89.74 89.73 89.73 0 1 1-89.73-89.74 29.91 29.91 0 1 0 0-59.82A149.52 149.52 0 1 0 418.76 269.2a29.91 29.91 0 1 1 59.82 0A209.33 209.33 0 0 1 269.2 478.57c-115.64 0-209.38-93.74-209.38-209.37S153.56 59.82 269.2 59.82a208.45 208.45 0 0 1 138.75 52.64v-.06a29.9 29.9 0 0 0 40.33-44.14c-.23-.22-.44-.45-.68-.66s-.76-.61-1.13-.91A268.13 268.13 0 0 0 269.2-.04C120.52-.04 0 120.48 0 269.16s120.52 269.2 269.2 269.2S538.4 417.87 538.4 269.2a89.73 89.73 0 0 0-79.73-89.15z" fill="#5458b3"></path></svg></svg> <!----></g></g></g></g> <g data-gra="path-name-1" fill="#333" transform="translate(93.88139915466309, 1.3785983730666995)"><g transform="scale(1)"><path d="M0.79-16.02L0.79-16.48Q1.37-16.46 2.36-16.44 3.35-16.41 4.33-16.41L4.33-16.41Q5.45-16.41 6.5-16.44 7.54-16.46 7.99-16.46L7.99-16.46Q11.22-16.46 12.83-15.4 14.44-14.34 14.44-12.41L14.44-12.41Q14.44-11.62 14.11-10.81 13.78-10.01 13-9.32 12.22-8.64 10.87-8.23 9.52-7.82 7.47-7.82L7.47-7.82 5.24-7.82 5.24-8.29 7.24-8.29Q8.61-8.29 9.32-8.81 10.03-9.34 10.3-10.21 10.57-11.08 10.57-12.15L10.57-12.15Q10.57-13.99 9.92-15.01 9.27-16.02 7.68-16.02L7.68-16.02Q6.78-16.02 6.51-15.62 6.24-15.23 6.24-14.02L6.24-14.02 6.24-2.47Q6.24-1.63 6.37-1.21 6.5-0.79 6.87-0.65 7.24-0.51 7.99-0.47L7.99-0.47 7.99 0Q7.36-0.05 6.4-0.06 5.45-0.07 4.47-0.07L4.47-0.07Q3.35-0.07 2.36-0.06 1.37-0.05 0.79 0L0.79 0 0.79-0.47Q1.54-0.51 1.91-0.65 2.28-0.79 2.41-1.21 2.54-1.63 2.54-2.47L2.54-2.47 2.54-14.02Q2.54-14.88 2.41-15.29 2.28-15.69 1.9-15.84 1.51-16 0.79-16.02L0.79-16.02ZM5.24-7.82L5.19-8.22Q6.19-8.2 6.93-8.13 7.66-8.06 8.22-8 8.78-7.94 9.22-7.92L9.22-7.92Q11.34-7.73 12.35-7.01 13.36-6.29 13.67-4.84L13.67-4.84 14.2-2.44Q14.41-1.51 14.64-1.14 14.88-0.77 15.32-0.77L15.32-0.77Q15.62-0.79 15.82-0.92 16.02-1.05 16.25-1.3L16.25-1.3 16.58-1.02Q15.95-0.3 15.23 0.01 14.51 0.33 13.48 0.33L13.48 0.33Q12.22 0.33 11.41-0.21 10.59-0.75 10.34-2.19L10.34-2.19 9.92-4.52Q9.76-5.49 9.52-6.23 9.29-6.96 8.88-7.39 8.47-7.82 7.75-7.82L7.75-7.82 5.24-7.82ZM22.68-12.36L22.68-12.36Q24.73-12.36 25.89-11.15 27.05-9.94 27.05-7.19L27.05-7.19 19.39-7.19 19.35-7.64 24.12-7.64Q24.14-8.78 23.98-9.74 23.82-10.71 23.47-11.29 23.12-11.87 22.54-11.87L22.54-11.87Q21.72-11.87 21.15-10.85 20.58-9.83 20.47-7.45L20.47-7.45 20.54-7.31Q20.51-7.03 20.5-6.73 20.49-6.43 20.49-6.1L20.49-6.1Q20.49-4.49 20.94-3.49 21.4-2.49 22.1-2.04 22.79-1.58 23.52-1.58L23.52-1.58Q24.21-1.58 25.04-1.93 25.87-2.28 26.59-3.45L26.59-3.45 27.01-3.31Q26.73-2.42 26.12-1.58 25.52-0.75 24.59-0.21 23.66 0.33 22.35 0.33L22.35 0.33Q20.77 0.33 19.56-0.35 18.35-1.02 17.66-2.4 16.97-3.77 16.97-5.89L16.97-5.89Q16.97-8.06 17.71-9.5 18.44-10.94 19.73-11.65 21.02-12.36 22.68-12.36ZM33.02-12.36L33.02-12.36Q33.99-12.36 34.73-12.12 35.46-11.87 35.79-11.64L35.79-11.64Q36.58-11.11 36.76-12.34L36.76-12.34 37.25-12.34Q37.21-11.69 37.18-10.75 37.16-9.8 37.16-8.24L37.16-8.24 36.67-8.24Q36.55-9.1 36.23-9.94 35.9-10.78 35.29-11.32 34.67-11.85 33.69-11.85L33.69-11.85Q33.02-11.85 32.55-11.47 32.08-11.08 32.08-10.36L32.08-10.36Q32.08-9.66 32.5-9.14 32.92-8.61 33.59-8.14 34.25-7.66 34.97-7.12L34.97-7.12Q36.14-6.26 36.94-5.39 37.74-4.52 37.74-3.12L37.74-3.12Q37.74-2.07 37.14-1.29 36.53-0.51 35.54-0.09 34.55 0.33 33.34 0.33L33.34 0.33Q32.64 0.33 32.1 0.19 31.55 0.05 31.15-0.16L31.15-0.16Q30.85-0.3 30.58-0.43 30.31-0.56 30.08-0.65L30.08-0.65Q29.85-0.72 29.67-0.49 29.5-0.26 29.41 0.16L29.41 0.16 28.92 0.16Q28.96-0.58 28.99-1.65 29.01-2.72 29.01-4.49L29.01-4.49 29.5-4.49Q29.64-3.24 30.01-2.27 30.38-1.3 31.02-0.76 31.66-0.21 32.64-0.21L32.64-0.21Q33.25-0.21 33.76-0.59 34.27-0.98 34.27-1.86L34.27-1.86Q34.27-2.89 33.61-3.56 32.95-4.24 31.92-5.03L31.92-5.03Q31.18-5.63 30.51-6.23 29.85-6.82 29.43-7.53 29.01-8.24 29.01-9.15L29.01-9.15Q29.01-10.2 29.57-10.92 30.13-11.64 31.05-12 31.97-12.36 33.02-12.36ZM45.17-12.36L45.17-12.36Q46.87-12.36 48.15-11.73 49.43-11.11 50.15-9.71 50.87-8.31 50.87-6.01L50.87-6.01Q50.87-3.7 50.15-2.32 49.43-0.93 48.15-0.3 46.87 0.33 45.17 0.33L45.17 0.33Q43.52 0.33 42.22-0.3 40.93-0.93 40.2-2.32 39.46-3.7 39.46-6.01L39.46-6.01Q39.46-8.31 40.2-9.71 40.93-11.11 42.22-11.73 43.52-12.36 45.17-12.36ZM45.17-11.9L45.17-11.9Q44.24-11.9 43.61-10.51 42.98-9.13 42.98-6.01L42.98-6.01Q42.98-2.89 43.61-1.51 44.24-0.14 45.17-0.14L45.17-0.14Q46.12-0.14 46.74-1.51 47.36-2.89 47.36-6.01L47.36-6.01Q47.36-9.13 46.74-10.51 46.12-11.9 45.17-11.9ZM56.83-18.23L56.83-18.23 56.83-2.17Q56.83-1.19 57.17-0.84 57.51-0.49 58.32-0.49L58.32-0.49 58.32 0Q57.88-0.02 57-0.06 56.11-0.09 55.2-0.09L55.2-0.09Q54.3-0.09 53.38-0.06 52.46-0.02 51.99 0L51.99 0 51.99-0.49Q52.81-0.49 53.14-0.84 53.48-1.19 53.48-2.17L53.48-2.17 53.48-15.44Q53.48-16.48 53.17-16.98 52.85-17.49 51.99-17.49L51.99-17.49 51.99-17.97Q52.74-17.9 53.43-17.9L53.43-17.9Q54.39-17.9 55.25-17.99 56.11-18.07 56.83-18.23ZM70.92-12.29L70.92-12.29 70.92-2.54Q70.92-1.49 71.25-0.99 71.57-0.49 72.41-0.49L72.41-0.49 72.41 0Q71.69-0.07 70.97-0.07L70.97-0.07Q69.99-0.07 69.15 0 68.31 0.07 67.57 0.26L67.57 0.26 67.57-1.84Q67.01-0.68 66.02-0.17 65.03 0.33 63.82 0.33L63.82 0.33Q62.84 0.33 62.24 0.07 61.63-0.19 61.28-0.58L61.28-0.58Q60.88-1.02 60.72-1.75 60.56-2.47 60.56-3.61L60.56-3.61 60.56-9.5Q60.56-10.55 60.24-11.05 59.93-11.55 59.07-11.55L59.07-11.55 59.07-12.04Q59.81-11.97 60.51-11.97L60.51-11.97Q61.49-11.97 62.34-12.05 63.19-12.13 63.91-12.29L63.91-12.29 63.91-2.65Q63.91-2.07 64.02-1.63 64.12-1.19 64.42-0.94 64.73-0.7 65.31-0.7L65.31-0.7Q66.24-0.7 66.9-1.48 67.57-2.26 67.57-3.4L67.57-3.4 67.57-9.5Q67.57-10.55 67.25-11.05 66.94-11.55 66.08-11.55L66.08-11.55 66.08-12.04Q66.82-11.97 67.52-11.97L67.52-11.97Q68.5-11.97 69.35-12.05 70.2-12.13 70.92-12.29ZM78.16-15.86L78.16-15.86 78.16-12.04 80.91-12.04 80.91-11.57 78.16-11.57 78.16-2.17Q78.16-1.47 78.42-1.18 78.67-0.88 79.19-0.88L79.19-0.88Q79.6-0.88 80.02-1.2 80.44-1.51 80.77-2.28L80.77-2.28 81.16-2.07Q80.79-1.02 80.03-0.35 79.28 0.33 77.97 0.33L77.97 0.33Q77.21 0.33 76.62 0.13 76.04-0.07 75.65-0.47L75.65-0.47Q75.13-0.98 74.97-1.73 74.81-2.49 74.81-3.7L74.81-3.7 74.81-11.57 72.85-11.57 72.85-12.04 74.81-12.04 74.81-15.11Q75.79-15.11 76.61-15.29 77.44-15.46 78.16-15.86ZM84.66-18.04L84.66-18.04Q85.63-18.04 86.2-17.57 86.78-17.09 86.78-16.25L86.78-16.25Q86.78-15.41 86.2-14.94 85.63-14.46 84.66-14.46L84.66-14.46Q83.68-14.46 83.11-14.94 82.54-15.41 82.54-16.25L82.54-16.25Q82.54-17.09 83.11-17.57 83.68-18.04 84.66-18.04ZM86.47-12.29L86.47-12.29 86.47-2.17Q86.47-1.19 86.81-0.84 87.15-0.49 87.96-0.49L87.96-0.49 87.96 0Q87.54-0.02 86.66-0.06 85.77-0.09 84.87-0.09L84.87-0.09Q83.96-0.09 83.03-0.06 82.1-0.02 81.63 0L81.63 0 81.63-0.49Q82.44-0.49 82.78-0.84 83.12-1.19 83.12-2.17L83.12-2.17 83.12-9.5Q83.12-10.55 82.81-11.05 82.49-11.55 81.63-11.55L81.63-11.55 81.63-12.04Q82.37-11.97 83.07-11.97L83.07-11.97Q84.05-11.97 84.9-12.05 85.75-12.13 86.47-12.29ZM94.97-12.36L94.97-12.36Q96.67-12.36 97.95-11.73 99.23-11.11 99.95-9.71 100.68-8.31 100.68-6.01L100.68-6.01Q100.68-3.7 99.95-2.32 99.23-0.93 97.95-0.3 96.67 0.33 94.97 0.33L94.97 0.33Q93.32 0.33 92.03-0.3 90.73-0.93 90-2.32 89.27-3.7 89.27-6.01L89.27-6.01Q89.27-8.31 90-9.71 90.73-11.11 92.03-11.73 93.32-12.36 94.97-12.36ZM94.97-11.9L94.97-11.9Q94.04-11.9 93.41-10.51 92.78-9.13 92.78-6.01L92.78-6.01Q92.78-2.89 93.41-1.51 94.04-0.14 94.97-0.14L94.97-0.14Q95.93-0.14 96.54-1.51 97.16-2.89 97.16-6.01L97.16-6.01Q97.16-9.13 96.54-10.51 95.93-11.9 94.97-11.9ZM110.78-12.36L110.78-12.36Q111.76-12.36 112.37-12.12 112.99-11.87 113.34-11.46L113.34-11.46Q113.71-11.01 113.89-10.31 114.06-9.62 114.06-8.43L114.06-8.43 114.06-2.17Q114.06-1.19 114.4-0.84 114.74-0.49 115.55-0.49L115.55-0.49 115.55 0Q115.11-0.02 114.23-0.06 113.34-0.09 112.48-0.09L112.48-0.09Q111.59-0.09 110.75-0.06 109.9-0.02 109.45 0L109.45 0 109.45-0.49Q110.15-0.49 110.43-0.84 110.71-1.19 110.71-2.17L110.71-2.17 110.71-9.41Q110.71-9.99 110.59-10.42 110.48-10.85 110.17-11.09 109.87-11.34 109.27-11.34L109.27-11.34Q108.29-11.34 107.63-10.57 106.96-9.8 106.96-8.64L106.96-8.64 106.96-2.17Q106.96-1.19 107.25-0.84 107.54-0.49 108.22-0.49L108.22-0.49 108.22 0Q107.8-0.02 107-0.06 106.19-0.09 105.33-0.09L105.33-0.09Q104.45-0.09 103.52-0.06 102.58-0.02 102.12 0L102.12 0 102.12-0.49Q102.93-0.49 103.27-0.84 103.61-1.19 103.61-2.17L103.61-2.17 103.61-9.5Q103.61-10.55 103.29-11.05 102.98-11.55 102.12-11.55L102.12-11.55 102.12-12.04Q102.86-11.97 103.56-11.97L103.56-11.97Q104.54-11.97 105.39-12.05 106.24-12.13 106.96-12.29L106.96-12.29 106.96-10.2Q107.54-11.39 108.54-11.87 109.55-12.36 110.78-12.36Z" transform="translate(-0.7899999618530273, 18.229999542236328)"></path></g></g></g> <!----></g><defs v-gra="od"></defs></svg>