<svg xmlns="http://www.w3.org/2000/svg" xmlns:xlink="http://www.w3.org/1999/xlink" data-v-2cb57da0="" version="1.0" width="100%" height="100%" viewBox="0 0 340.000000 250.000000" preserveAspectRatio="xMidYMid meet" color-interpolation-filters="sRGB" style="margin: auto;"> <g data-v-2cb57da0="" fill="#333" class="icon-text-wrapper icon-svg-group iconsvg" transform="translate(47.535003662109375,101.39356803894043)"><g class="iconsvg-imagesvg" transform="translate(0,0)"><g> <svg x="0" y="0" width="60" height="47.21286708004155" filtersec="colorsb4069859883" class="image-svg-svg primary" style="overflow: visible;"><svg xmlns="http://www.w3.org/2000/svg" viewBox="0.006990882568061352 0.0011070966720581055 172.97366333007812 136.1092987060547"><path d="M39.57.16h84.12a2.92 2.92 0 0 1 2.91 1.64q16.8 29.2 33.66 58.35Q164 66.58 167.71 73c.14.25.26.51.4.75.41.71.26 1-.61 1h-23.7a2.52 2.52 0 0 1-2.57-1.45q-8.52-14.91-17.14-29.74C120.47 37.43 117 31.16 113.3 25a3.2 3.2 0 0 0-3.3-1.87c-18.32 0-36.63 0-54.94.06a3.34 3.34 0 0 1-3.5-2C48 14.79 44.28 8.49 40.62 2.15 40.29 1.58 40 1 39.57.16zM65.26 105c-.63 0-.7-.55-.92-.93q-14.16-24.51-28.29-49-8.92-15.48-17.89-30.94a2.1 2.1 0 0 1 0-2.44C22.13 14.87 26.06 8 30 1.18c.91-1.59.92-1.57 1.86.05l38.95 67.44c2.55 4.43 5.08 8.86 7.63 13.29C75.71 86.64 73 91.31 70.29 96c-1.7 3-3.63 5.88-5.03 9z" fill="#7a80f2"/><path d="M47.1 135.68c-2.13-3.62-4.29-7.23-6.39-10.87Q20.57 89.92.42 55a2.19 2.19 0 0 1 0-2.56c4-6.89 8-13.82 12-20.75.48-.83.72-1.29 1.4-.11Q37 71.82 60.17 112c.16.29.29.59.43.89a11.28 11.28 0 0 0-.84 1.12c-2.62 4.52-5.2 9.06-7.82 13.58-1.58 2.7-3.04 5.5-4.84 8.09zM65.26 105c1.4-3.15 3.33-6 5-9 2.74-4.69 5.45-9.36 8.18-14h92.85c2 0 2.05 0 1.06 1.72q-5.83 10.14-11.66 20.3a2 2 0 0 1-2 1.16H66.54c-.43-.05-.85-.11-1.28-.18z" fill="#5458b3"/><path d="M47.1 135.68c1.8-2.59 3.26-5.39 4.84-8.11 2.62-4.52 5.2-9.06 7.82-13.58a11.28 11.28 0 0 1 .84-1.12h92.98c1.91 0 1.93 0 .94 1.73-2.2 3.86-4.43 7.71-6.65 11.56-1.67 2.91-3.38 5.8-5 8.74a2 2 0 0 1-2 1.18H48.73a2.1 2.1 0 0 1-1.63-.4z" fill="#7a80f2"/></svg></svg> <!----></g></g> <g transform="translate(67,9.491432189941406)"><g data-gra="path-name" fill-rule="" class="tp-name iconsvg-namesvg"><g transform="scale(1)"><g><path d="M16.08-24.42L16.26-24.3Q16.08-24.06 15.73-23.82 15.39-23.58 15.39-23.34L15.39-23.34Q15.39-20.76 15.79-18.2 16.2-15.63 17.1-13.24 18-10.86 19.45-8.74 20.91-6.63 23.01-5.01L23.01-5.01Q24.18-4.11 25.54-3.55 26.91-3 28.23-2.31L28.23-2.31Q28.47-2.19 28.47-2.04L28.47-2.04Q28.47-1.89 28.23-1.71L28.23-1.71Q27.48-1.11 26.94-0.54 26.4 0.03 25.92 0.87L25.92 0.87Q25.68 1.26 25.52 1.65 25.35 2.04 25.02 2.37L25.02 2.37Q24.93 2.37 24.87 2.34L24.87 2.34Q22.2 0.66 20.29-1.86 18.39-4.38 17.25-7.29L17.25-7.29Q17.1-7.68 16.88-8.29 16.65-8.91 16.39-9.54 16.14-10.17 15.88-10.74 15.63-11.31 15.39-11.61L15.39-11.61Q15.06-11.67 14.91-11.46L14.91-11.46Q14.73-11.22 14.59-10.95 14.46-10.68 14.31-10.44L14.31-10.44Q14.01-9.93 13.72-9.42 13.44-8.91 13.11-8.4L13.11-8.4Q12.06-6.75 11.03-5.35 9.99-3.96 8.82-2.75 7.65-1.53 6.29-0.46 4.92 0.6 3.21 1.59L3.21 1.59Q2.88 1.8 2.37 2.07 1.86 2.34 1.5 2.4L1.5 2.4 1.47 2.34Q4.38-0.42 6.24-3.17 8.1-5.91 9.16-8.88 10.23-11.85 10.63-15.15 11.04-18.45 11.04-22.38L11.04-22.38Q11.04-22.5 11.01-22.92 10.98-23.34 10.98-23.79 10.98-24.24 11.03-24.6 11.07-24.96 11.25-24.96L11.25-24.96 11.31-24.96Q12.51-24.81 13.71-24.72 14.91-24.63 16.08-24.42L16.08-24.42ZM47.79-10.5L47.85-10.35Q49.74-8.7 50.69-6.76 51.63-4.83 51.63-2.28L51.63-2.28Q51.63 0.27 50.43 1.44 49.23 2.61 46.68 2.61L46.68 2.61Q46.53 2.61 46.45 2.49 46.38 2.37 46.34 2.19 46.29 2.01 46.26 1.83 46.23 1.65 46.2 1.56L46.2 1.56Q46.11 1.29 45.9 0.99 45.69 0.69 45.47 0.42 45.24 0.15 45.06-0.06 44.88-0.27 44.88-0.39L44.88-0.39Q44.88-0.51 45.03-0.54 45.18-0.57 45.24-0.57L45.24-0.57Q46.05-0.57 46.63-0.66 47.22-0.75 47.59-1.02 47.97-1.29 48.16-1.81 48.36-2.34 48.36-3.24L48.36-3.24Q48.36-3.54 48.06-3.54L48.06-3.54Q47.13-3.54 46.09-2.98 45.06-2.43 43.98-1.78 42.9-1.14 41.79-0.58 40.68-0.03 39.6-0.03L39.6-0.03Q39.51-0.03 39.39-0.03 39.27-0.03 39.27-0.18L39.27-0.18Q39.27-0.27 39.88-0.73 40.5-1.2 41.43-1.86 42.36-2.52 43.44-3.27 44.52-4.02 45.45-4.68 46.38-5.34 47-5.83 47.61-6.33 47.61-6.48L47.61-6.48Q47.61-6.6 47.4-6.6L47.4-6.6Q46.77-6.6 45.64-6.19 44.52-5.79 43.34-5.35 42.15-4.92 41.16-4.6 40.17-4.29 39.81-4.47L39.81-4.47Q39.87-4.56 40.38-4.92 40.89-5.28 41.66-5.77 42.42-6.27 43.3-6.84 44.19-7.41 44.97-7.95 45.75-8.49 46.32-8.94 46.89-9.39 47.01-9.63L47.01-9.63Q47.01-9.72 46.95-9.86 46.89-9.99 46.77-9.99L46.77-9.99Q46.44-9.99 46.02-9.86 45.6-9.72 45.27-9.6L45.27-9.6Q44.7-9.42 44.02-9.15 43.35-8.88 42.64-8.63 41.94-8.37 41.23-8.21 40.53-8.04 39.96-8.04L39.96-8.04Q39.9-8.04 39.77-8.05 39.63-8.07 39.63-8.19L39.63-8.19Q39.63-8.37 40.13-8.67 40.62-8.97 41.34-9.36 42.06-9.75 42.93-10.2 43.8-10.65 44.52-11.12 45.24-11.58 45.73-12.03 46.23-12.48 46.23-12.9L46.23-12.9Q46.23-13.11 46.05-13.15 45.87-13.2 45.72-13.2L45.72-13.2Q45.03-13.2 44.41-13 43.8-12.81 43.2-12.57 42.6-12.33 42.02-12.13 41.43-11.94 40.8-11.94L40.8-11.94Q40.56-11.94 40.48-12.31 40.41-12.69 40.42-13.23 40.44-13.77 40.5-14.43 40.56-15.09 40.58-15.63 40.59-16.17 40.52-16.54 40.44-16.92 40.2-16.92L40.2-16.92Q40.14-16.92 39.99-16.89 39.84-16.86 39.69-16.86 39.54-16.86 39.42-16.89 39.3-16.92 39.3-17.01L39.3-17.01Q39.3-17.07 39.36-17.16 39.42-17.25 39.48-17.31L39.48-17.31Q40.62-18.66 41.64-20.04 42.66-21.42 43.29-23.1L43.29-23.1Q43.35-23.22 43.47-23.58 43.59-23.94 43.74-24.3 43.89-24.66 44.07-24.95 44.25-25.23 44.4-25.23L44.4-25.23Q44.58-25.23 45.21-25.05 45.84-24.87 46.53-24.63 47.22-24.39 47.82-24.15 48.42-23.91 48.51-23.79L48.51-23.79Q48.48-23.64 48.33-23.5 48.18-23.37 48.02-23.2 47.85-23.04 47.72-22.88 47.58-22.71 47.58-22.53L47.58-22.53Q47.58-22.29 47.88-22.21 48.18-22.14 48.36-22.14L48.36-22.14Q48.87-22.14 49.26-22.32 49.65-22.5 49.97-22.8 50.28-23.1 50.56-23.45 50.85-23.79 51.15-24.15L51.15-24.15 51.3-24.21 51.45-24.15Q52.11-23.46 52.88-22.9 53.64-22.35 54.33-21.66L54.33-21.66 54.39-21.51 54.3-21.36Q53.13-20.94 52.03-20.31 50.94-19.68 49.89-19.05L49.89-19.05 49.8-18.9 49.86-18.75 50.07-18.6 52.89-18.6Q53.01-18.6 53.23-18.81 53.46-19.02 53.7-19.27 53.94-19.53 54.16-19.77 54.39-20.01 54.51-20.1L54.51-20.1Q54.78-20.28 55.23-20.04 55.68-19.8 56.16-19.41 56.64-19.02 57.06-18.63 57.48-18.24 57.72-18.12L57.72-18.12 57.81-18Q57.84-17.88 57.78-17.79 57.72-17.7 57.6-17.63 57.48-17.55 57.39-17.46 57.3-17.37 57.3-17.28L57.3-17.28 57.3-13.2Q57.3-13.05 57.12-12.93 56.94-12.81 56.69-12.69 56.43-12.57 56.19-12.46 55.95-12.36 55.86-12.27L55.86-12.27Q55.71-12 56.11-11.52 56.52-11.04 57.06-10.53 57.6-10.02 58.08-9.57 58.56-9.12 58.56-8.91L58.56-8.91Q58.56-8.82 58.29-8.71 58.02-8.61 57.67-8.5 57.33-8.4 57-8.31 56.67-8.22 56.55-8.19L56.55-8.19Q56.4-8.13 55.94-8.04 55.47-7.95 54.97-7.88 54.48-7.8 54.08-7.79 53.67-7.77 53.64-7.92L53.64-7.92 53.64-8.1Q53.85-8.55 54.16-9 54.48-9.45 54.77-9.9 55.05-10.35 55.24-10.83 55.44-11.31 55.44-11.85L55.44-11.85Q55.44-12.15 55.26-12.25 55.08-12.36 54.84-12.38 54.6-12.39 54.34-12.34 54.09-12.3 53.91-12.3L53.91-12.3Q53.67-12.3 53.61-12.57 53.55-12.84 53.43-12.99L53.43-12.99Q53.25-13.2 52.99-13.23 52.74-13.26 52.5-13.26L52.5-13.26Q52.35-13.26 52.17-13.24 51.99-13.23 51.84-13.23L51.84-13.23Q51.51-13.2 50.84-12.9 50.16-12.6 49.48-12.18 48.81-11.76 48.3-11.31 47.79-10.86 47.79-10.5L47.79-10.5ZM37.8-17.13L37.71-16.92Q37.59-16.83 37.44-16.7 37.29-16.56 37.29-16.41L37.29-16.41 37.29 1.59Q37.29 1.92 36.85 2.13 36.42 2.34 35.84 2.48 35.25 2.61 34.7 2.67 34.14 2.73 33.9 2.73L33.9 2.73Q33.6 2.73 33.6 2.43L33.6 2.43 33.6-11.7Q33.6-11.82 33.57-11.96 33.54-12.09 33.39-12.09L33.39-12.09Q33.27-12.09 32.91-11.76 32.55-11.43 32.15-11.03 31.74-10.62 31.36-10.28 30.99-9.93 30.84-9.9L30.84-9.9Q30.81-9.84 30.8-9.88 30.78-9.93 30.78-9.96L30.78-9.96Q30.78-10.11 30.81-10.17L30.81-10.17Q31.32-11.88 32.02-13.48 32.73-15.09 33.33-16.77L33.33-16.77Q33.84-18.12 34.24-19.5 34.65-20.88 34.98-22.29L34.98-22.29Q35.13-22.98 35.25-23.67 35.37-24.36 35.58-25.02L35.58-25.02Q35.61-25.2 35.82-25.2L35.82-25.2Q35.97-25.2 36.69-25 37.41-24.81 38.23-24.57 39.06-24.33 39.77-24.11 40.47-23.88 40.56-23.79L40.56-23.79 40.74-23.64Q40.59-23.58 40.42-23.52 40.26-23.46 40.11-23.34L40.11-23.34Q40.08-23.34 39.88-22.93 39.69-22.53 39.42-21.95 39.15-21.36 38.82-20.67 38.49-19.98 38.22-19.39 37.95-18.81 37.77-18.39 37.59-17.97 37.59-17.94L37.59-17.94Q37.59-17.73 37.68-17.54 37.77-17.34 37.8-17.13L37.8-17.13ZM44.07-19.41L43.98-19.23Q43.98-18.84 44.1-18.72 44.22-18.6 44.61-18.6L44.61-18.6 47.73-18.6Q47.85-18.6 48.13-18.97 48.42-19.35 48.7-19.84 48.99-20.34 49.2-20.79 49.41-21.24 49.41-21.39L49.41-21.39Q49.41-21.75 49.19-21.79 48.96-21.84 48.69-21.84L48.69-21.84Q48.6-21.84 48.25-21.81 47.91-21.78 47.53-21.73 47.16-21.69 46.84-21.63 46.53-21.57 46.5-21.54L46.5-21.54 44.07-19.41ZM46.71-18L44.49-18Q44.19-18 44.19-17.7L44.19-17.7 44.19-13.89Q44.19-13.59 44.49-13.59L44.49-13.59 46.71-13.59Q47.01-13.59 47.01-13.89L47.01-13.89 47.01-17.7Q47.01-18 46.71-18L46.71-18ZM53.1-18L50.91-18Q50.61-18 50.61-17.7L50.61-17.7 50.61-13.89Q50.61-13.59 50.91-13.59L50.91-13.59 53.1-13.59Q53.4-13.59 53.4-13.89L53.4-13.89 53.4-17.7Q53.4-18 53.1-18L53.1-18ZM59.1-3.06L59.19-2.91 59.1-2.73Q58.35-2.34 57.72-1.78 57.09-1.23 56.64-0.51L56.64-0.51Q56.52-0.33 56.41-0.14 56.31 0.06 56.19 0.24L56.19 0.24Q55.95 0.57 55.71 0.3L55.71 0.3Q55.5 0.12 55.26-0.26 55.02-0.63 54.87-0.87L54.87-0.87Q54.42-1.59 53.74-2.86 53.07-4.14 52.44-5.56 51.81-6.99 51.38-8.32 50.94-9.66 50.94-10.47L50.94-10.47Q50.94-10.62 51.05-10.92 51.15-11.22 51.36-11.22L51.36-11.22Q51.45-11.22 51.75-10.72 52.05-10.23 52.41-9.6 52.77-8.97 53.09-8.38 53.4-7.8 53.52-7.62L53.52-7.62Q54.03-6.81 54.66-6.18 55.29-5.55 56.01-5.01 56.73-4.47 57.51-3.99 58.29-3.51 59.1-3.06L59.1-3.06ZM69.57-24.9L69.72-24.99Q69.99-24.93 70.62-24.69 71.25-24.45 71.94-24.15 72.63-23.85 73.28-23.56 73.92-23.28 74.19-23.13L74.19-23.13Q74.31-23.1 74.31-22.95L74.31-22.95Q74.28-22.89 74.28-22.86 74.28-22.83 74.25-22.8L74.25-22.8Q73.92-22.2 73.47-21.64 73.02-21.09 72.6-20.58L72.6-20.58Q72.06-19.92 71.31-19.06 70.56-18.21 69.69-17.32 68.82-16.44 67.84-15.55 66.87-14.67 65.88-13.93 64.89-13.2 63.91-12.71 62.94-12.21 62.1-12.06L62.1-12.06Q62.04-12.03 61.88-12.04 61.71-12.06 61.71-12.21L61.71-12.21Q61.71-12.33 61.89-12.51L61.89-12.51Q63.21-13.95 64.33-15.38 65.46-16.8 66.41-18.29 67.35-19.77 68.13-21.4 68.91-23.04 69.57-24.9L69.57-24.9ZM77.82-23.91L77.91-24 78.06-23.91Q79.02-22.53 80.27-21.43 81.51-20.34 82.92-19.45 84.33-18.57 85.86-17.88 87.39-17.19 88.92-16.62L88.92-16.62 89.01-16.5 88.92-16.38Q88.32-16.05 87.9-15.69 87.48-15.33 87.15-14.91 86.82-14.49 86.55-14.01 86.28-13.53 85.95-12.96L85.95-12.96Q85.89-12.9 85.84-12.82 85.8-12.75 85.71-12.75L85.71-12.75Q85.59-12.75 85.5-12.84L85.5-12.84Q84.24-13.77 83-15.03 81.75-16.29 80.69-17.73 79.62-19.17 78.86-20.75 78.09-22.32 77.82-23.91L77.82-23.91ZM78.87-12.9L79.08-12.99Q79.17-13.08 79.48-13.39 79.8-13.71 80.16-14.05 80.52-14.4 80.82-14.65 81.12-14.91 81.21-14.91L81.21-14.91Q81.3-14.91 81.75-14.54 82.2-14.16 82.74-13.68 83.28-13.2 83.76-12.76 84.24-12.33 84.39-12.21L84.39-12.21 84.33-12.03Q83.79-11.79 83.46-11.46L83.46-11.46Q83.28-10.92 83.31-10.14 83.34-9.36 83.31-8.76L83.31-8.76Q83.28-7.65 83.19-6.39 83.1-5.13 82.84-3.88 82.59-2.64 82.16-1.51 81.72-0.39 80.98 0.48 80.25 1.35 79.2 1.88 78.15 2.4 76.68 2.4L76.68 2.4Q76.53 2.4 76.44 2.27 76.35 2.13 76.31 1.95 76.26 1.77 76.25 1.57 76.23 1.38 76.2 1.29L76.2 1.29Q75.96 0.39 75.5-0.1 75.03-0.6 74.34-1.17L74.34-1.17Q74.28-1.23 74.16-1.32 74.04-1.41 74.04-1.53L74.04-1.53Q74.04-1.65 74.25-1.68 74.46-1.71 74.52-1.71L74.52-1.71 77.4-1.71Q77.73-1.71 77.89-1.96 78.06-2.22 78.18-2.46L78.18-2.46Q78.51-3.15 78.73-4.44 78.96-5.73 79.11-7.15 79.26-8.58 79.32-9.93 79.38-11.28 79.38-12.09L79.38-12.09Q79.38-12.39 79.08-12.39L79.08-12.39 74.67-12.39Q74.52-12.39 74.47-12.31 74.43-12.24 74.37-12.12L74.37-12.12Q74.16-11.49 74.08-10.81 74.01-10.14 73.83-9.48L73.83-9.48Q73.32-7.62 72.63-6.15 71.94-4.68 70.97-3.44 69.99-2.19 68.72-1.16 67.44-0.12 65.79 0.81L65.79 0.81Q65.55 0.96 65.13 1.19 64.71 1.41 64.26 1.65 63.81 1.89 63.39 2.05 62.97 2.22 62.73 2.22L62.73 2.22Q62.49 2.22 62.55 2.1 62.61 1.98 62.67 1.89L62.67 1.89Q63.84 0.51 64.84-0.53 65.85-1.56 66.66-2.44 67.47-3.33 68.08-4.2 68.7-5.07 69.12-6.17 69.54-7.26 69.75-8.71 69.96-10.17 69.96-12.21L69.96-12.21Q69.96-12.45 69.6-12.53 69.24-12.6 68.7-12.58 68.16-12.57 67.52-12.51 66.87-12.45 66.33-12.43 65.79-12.42 65.43-12.49 65.07-12.57 65.07-12.81L65.07-12.81Q65.07-12.9 65.22-12.9L65.22-12.9 78.87-12.9ZM107.7-21.09L107.91-21Q108.21-21 108.24-21.29 108.27-21.57 108.22-21.91 108.18-22.26 108.19-22.54 108.21-22.83 108.51-22.83L108.51-22.83Q108.72-22.83 109.35-22.81 109.98-22.8 110.64-22.74 111.3-22.68 111.81-22.57 112.32-22.47 112.32-22.29L112.32-22.29Q112.32-22.05 112-21.88 111.69-21.72 111.69-21.48L111.69-21.48 111.69-5.01Q111.69-4.77 111.28-4.62 110.88-4.47 110.37-4.38 109.86-4.29 109.36-4.25 108.87-4.2 108.69-4.2L108.69-4.2Q108.45-4.2 108.39-4.5L108.39-4.5Q108.3-4.95 108.3-5.43 108.3-5.91 108.27-6.36L108.27-6.36Q108.18-8.34 108.18-10.29L108.18-10.29 108.18-18.9Q108.18-18.99 108.21-19.25 108.24-19.5 108.24-19.75 108.24-20.01 108.19-20.22 108.15-20.43 108-20.43L108-20.43Q107.85-20.43 107.72-20.43 107.58-20.43 107.43-20.4L107.43-20.4Q107.04-20.34 106.66-20.11 106.29-19.89 105.9-19.63 105.51-19.38 105.11-19.18 104.7-18.99 104.25-18.99L104.25-18.99Q103.98-18.99 104-19.34 104.01-19.68 104.1-20.1 104.19-20.52 104.23-20.86 104.28-21.21 104.01-21.21L104.01-21.21 94.41-21.21Q94.32-21.21 94.31-20.97 94.29-20.73 94.29-20.67L94.29-20.67Q94.23-20.07 94.11-19.5L94.11-19.5Q93.93-18.75 93.47-18.27 93-17.79 92.19-17.79L92.19-17.79Q91.86-17.79 91.44-17.88 91.02-17.97 90.87-18.3L90.87-18.3Q90.81-18.45 90.8-18.7 90.78-18.96 90.78-19.11L90.78-19.11Q90.78-19.53 91.02-19.98 91.26-20.43 91.61-20.84 91.95-21.24 92.34-21.61 92.73-21.99 93-22.26L93-22.26Q93.15-22.41 93.24-22.41L93.24-22.41Q93.39-22.41 93.58-22.11 93.78-21.81 93.9-21.69L93.9-21.69Q94.05-21.63 94.39-21.61 94.74-21.6 95.14-21.6 95.55-21.6 95.94-21.6 96.33-21.6 96.51-21.6L96.51-21.6Q96.75-21.6 96.83-21.88 96.9-22.17 96.89-22.59 96.87-23.01 96.81-23.5 96.75-24 96.73-24.42 96.72-24.84 96.8-25.13 96.87-25.41 97.11-25.41L97.11-25.41Q98.16-25.41 99.19-25.29 100.23-25.17 101.28-25.02L101.28-25.02 101.46-24.9Q101.46-24.75 101.33-24.66 101.19-24.57 101.03-24.49 100.86-24.42 100.72-24.3 100.59-24.18 100.59-24L100.59-24 100.59-21.9Q100.59-21.6 100.89-21.6L100.89-21.6 103.59-21.6Q103.77-21.6 104-21.79 104.22-21.99 104.46-22.26 104.7-22.53 104.92-22.77 105.15-23.01 105.33-23.1L105.33-23.1 105.51-23.19 105.66-23.13 107.7-21.09ZM118.47-24.63L118.62-24.51Q118.62-24.36 118.47-24.25 118.32-24.15 118.14-24.06 117.96-23.97 117.83-23.85 117.69-23.73 117.69-23.61L117.69-23.61 117.69 0.21Q117.69 0.81 117.21 1.3 116.73 1.8 116.07 2.13 115.41 2.46 114.67 2.64 113.94 2.82 113.46 2.82L113.46 2.82Q113.19 2.82 113.09 2.43 112.98 2.04 112.92 1.8L112.92 1.8Q112.8 1.38 112.69 1.05 112.59 0.72 112.44 0.43 112.29 0.15 112.08-0.14 111.87-0.42 111.57-0.75L111.57-0.75Q111.51-0.81 111.44-0.89 111.36-0.96 111.36-1.08L111.36-1.08Q111.36-1.23 111.51-1.26 111.66-1.29 111.78-1.29L111.78-1.29 113.46-1.29Q113.61-1.29 113.75-1.44 113.88-1.59 113.94-1.71L113.94-1.71 113.94-1.74Q113.94-1.77 113.97-1.8L113.97-1.8Q113.97-1.83 114-1.89L114-1.89 114-24.72Q114-24.93 114.13-24.97 114.27-25.02 114.42-25.02L114.42-25.02Q115.44-25.02 116.44-24.9 117.45-24.78 118.47-24.63L118.47-24.63ZM91.08-8.97L90.99-9.12 91.11-9.21 96.51-9.21Q96.81-9.21 96.81-9.51L96.81-9.51 96.81-19.5Q96.81-19.8 97.11-19.8L97.11-19.8Q97.29-19.8 97.86-19.74 98.43-19.68 99.06-19.61 99.69-19.53 100.23-19.45 100.77-19.38 100.89-19.32L100.89-19.32 100.92-19.32Q101.04-19.14 100.81-19.02 100.59-18.9 100.59-18.69L100.59-18.69 100.59-16.8Q100.59-16.65 100.83-16.62 101.07-16.59 101.19-16.59L101.19-16.59Q101.61-16.59 101.89-16.91 102.18-17.22 102.42-17.61 102.66-18 102.9-18.31 103.14-18.63 103.5-18.63L103.5-18.63Q103.68-18.63 104.11-18.36 104.55-18.09 105.02-17.73 105.48-17.37 105.86-17.01 106.23-16.65 106.32-16.47L106.32-16.47Q106.2-16.2 105.93-16.2L105.93-16.2 100.77-16.2Q100.59-16.2 100.48-16.04 100.38-15.87 100.41-15.72L100.41-15.72 100.59-13.41Q100.62-13.23 100.8-13.2 100.98-13.17 101.13-13.17L101.13-13.17Q101.73-13.17 102.08-13.44 102.42-13.71 102.67-14.07 102.93-14.43 103.13-14.74 103.32-15.06 103.62-15.15L103.62-15.15Q103.74-15.12 104.17-14.8 104.61-14.49 105.06-14.08 105.51-13.68 105.87-13.3 106.23-12.93 106.23-12.84L106.23-12.84Q106.23-12.75 106.14-12.72 106.05-12.69 105.99-12.69L105.99-12.69 100.77-12.69Q100.41-12.69 100.41-12.3L100.41-12.3Q100.41-11.67 100.42-10.99 100.44-10.32 100.59-9.69L100.59-9.69Q100.65-9.54 100.68-9.46 100.71-9.39 100.89-9.39L100.89-9.39 102.39-9.39Q102.63-9.39 102.93-9.72 103.23-10.05 103.52-10.44 103.8-10.83 104.04-11.16 104.28-11.49 104.43-11.49L104.43-11.49Q104.61-11.49 105.06-11.17 105.51-10.86 106-10.46 106.5-10.05 106.86-9.64 107.22-9.24 107.22-9.09L107.22-9.09 107.07-9Q105.06-8.79 103.05-8.78 101.04-8.76 99.03-8.76L99.03-8.76 92.82-8.76Q92.37-8.76 91.94-8.83 91.5-8.91 91.08-8.97L91.08-8.97ZM96.27-16.38L96.27-16.38Q96.24-16.32 96.11-16.26 95.97-16.2 95.91-16.2L95.91-16.2 92.34-16.2Q92.28-16.2 92.17-16.25 92.07-16.29 92.07-16.38L92.07-16.38Q92.1-16.38 92.73-16.39 93.36-16.41 94.13-16.43 94.89-16.44 95.55-16.43 96.21-16.41 96.27-16.38ZM92.19-12.9L92.28-12.99 96.12-12.99 96.21-12.9 96.12-12.81 92.28-12.81 92.19-12.9ZM101.07-6.21L101.28-6.3 102.93-7.95Q102.99-7.98 103.02-7.98 103.05-7.98 103.11-8.01L103.11-8.01Q103.2-8.04 103.68-7.68 104.16-7.32 104.73-6.87 105.3-6.42 105.75-6 106.2-5.58 106.2-5.46L106.2-5.46Q106.2-5.34 106.08-5.22 105.96-5.1 105.8-5 105.63-4.89 105.51-4.79 105.39-4.68 105.39-4.59L105.39-4.59 105.39 1.41Q105.39 1.74 104.95 1.93 104.52 2.13 103.94 2.23 103.35 2.34 102.8 2.37 102.24 2.4 102 2.4L102 2.4Q101.79 2.4 101.79 2.19L101.79 2.19 101.79-5.31Q101.79-5.61 101.49-5.61L101.49-5.61 96.9-5.61Q96.6-5.61 96.6-5.31L96.6-5.31 96.6-0.3Q96.6 0.03 97.22 0.04 97.83 0.06 98.63 0 99.42-0.06 100.14-0.06 100.86-0.06 101.07 0.24L101.07 0.24Q101.01 0.3 100.41 0.32 99.81 0.33 99.09 0.33 98.37 0.33 97.74 0.32 97.11 0.3 96.93 0.3L96.93 0.3Q96.81 0.3 96.69 0.51 96.57 0.72 96.45 0.97 96.33 1.23 96.22 1.48 96.12 1.74 96.06 1.83L96.06 1.83Q95.88 2.07 95.53 2.22 95.19 2.37 94.78 2.46 94.38 2.55 93.97 2.58 93.57 2.61 93.3 2.61L93.3 2.61Q93.06 2.61 93 2.31L93 2.31Q92.85 1.68 92.91 1 92.97 0.33 92.94-0.33L92.94-0.33Q92.88-2.1 92.83-3.84 92.79-5.58 92.79-7.35L92.79-7.35Q92.79-7.62 93.09-7.62L93.09-7.62Q93.54-7.62 93.99-7.39 94.44-7.17 94.91-6.92 95.37-6.66 95.83-6.43 96.3-6.21 96.81-6.21L96.81-6.21 101.07-6.21ZM142.47-25.41L142.68-25.32Q142.89-25.11 143.41-24.6 143.94-24.09 144.51-23.54 145.08-22.98 145.54-22.5 146.01-22.02 146.1-21.87L146.1-21.87Q146.07-21.78 145.8-21.78 145.53-21.78 145.2-21.82 144.87-21.87 144.57-21.93 144.27-21.99 144.15-21.99L144.15-21.99Q143.64-21.99 143.15-21.9 142.65-21.81 142.14-21.75L142.14-21.75Q140.61-21.54 139.06-21.36 137.52-21.18 135.96-21.03L135.96-21.03Q135.84-21.03 135.5-21 135.15-20.97 134.78-20.91 134.4-20.85 134.12-20.76 133.83-20.67 133.83-20.55L133.83-20.55Q133.83-20.37 134.12-20.23 134.4-20.1 134.76-20 135.12-19.89 135.41-19.79 135.69-19.68 135.69-19.5L135.69-19.5Q135.69-19.41 135.62-19.38 135.54-19.35 135.48-19.29L135.48-19.29Q135.15-19.11 134.29-18.66 133.44-18.21 132.51-17.67 131.58-17.13 130.88-16.61 130.17-16.08 130.17-15.78L130.17-15.78Q130.17-15.54 130.31-15.29 130.44-15.03 130.59-14.76 130.74-14.49 130.88-14.19 131.01-13.89 131.01-13.56L131.01-13.56Q131.01-12.72 130.49-12.34 129.96-11.97 129.18-11.97L129.18-11.97Q128.73-11.97 128.18-12.42 127.62-12.87 127.08-13.48 126.54-14.1 126.08-14.73 125.61-15.36 125.34-15.69L125.34-15.69Q125.13-15.93 124.81-16.27 124.5-16.62 124.41-16.92L124.41-16.92Q124.41-17.07 124.56-17.07L124.56-17.07Q125.1-17.07 125.64-16.96 126.18-16.86 126.72-16.72 127.26-16.59 127.81-16.48 128.37-16.38 128.91-16.38L128.91-16.38Q129.03-16.38 129.13-16.47 129.24-16.56 129.3-16.65L129.3-16.65Q129.57-17.01 129.71-17.49 129.84-17.97 129.99-18.39L129.99-18.39Q130.2-18.9 130.47-19.39 130.74-19.89 131.01-20.4L131.01-20.4 131.01-20.52 130.92-20.67Q130.71-20.79 130.5-20.8 130.29-20.82 130.05-20.82L130.05-20.82Q128.61-20.82 127.23-20.61 125.85-20.4 124.41-20.4L124.41-20.4Q124.05-20.4 123.64-20.37 123.24-20.34 122.91-20.43L122.91-20.43Q123-20.52 123.3-20.61 123.6-20.7 123.96-20.77 124.32-20.85 124.67-20.91 125.01-20.97 125.16-21L125.16-21Q128.43-21.69 131.61-22.44 134.79-23.19 138-24.06L138-24.06Q138.36-24.15 139-24.38 139.65-24.6 140.32-24.82 141-25.05 141.59-25.23 142.17-25.41 142.47-25.41L142.47-25.41ZM142.74-17.43L142.74-17.43Q142.71-17.37 142.49-17.23 142.26-17.1 141.99-16.93 141.72-16.77 141.47-16.62 141.21-16.47 141.12-16.41L141.12-16.41Q140.25-15.81 139.45-15.12 138.66-14.43 137.79-13.8L137.79-13.8Q136.68-12.99 135.47-12.31 134.25-11.64 133.11-10.89L133.11-10.89Q133.05-10.86 132.85-10.74 132.66-10.62 132.47-10.48 132.27-10.35 132.12-10.23 131.97-10.11 131.97-10.02L131.97-10.02Q132-9.9 132.13-9.87 132.27-9.84 132.36-9.84L132.36-9.84Q134.13-9.84 135.87-9.93 137.61-10.02 139.38-10.02L139.38-10.02Q139.53-10.02 140.03-9.99 140.52-9.96 141.04-9.97 141.57-9.99 141.97-10.05 142.38-10.11 142.38-10.29L142.38-10.29Q142.38-10.65 142.02-10.96 141.66-11.28 141.22-11.55 140.79-11.82 140.43-12.04 140.07-12.27 140.07-12.42L140.07-12.42Q140.07-12.54 140.19-12.57 140.31-12.6 140.4-12.6L140.4-12.6Q141.36-12.6 142.6-12.4 143.85-12.21 144.97-11.73 146.1-11.25 146.87-10.42 147.63-9.6 147.63-8.37L147.63-8.37Q147.63-7.5 147.16-6.94 146.7-6.39 145.8-6.39L145.8-6.39Q145.11-6.39 144.75-6.87 144.39-7.35 144.12-7.9 143.85-8.46 143.53-8.94 143.22-9.42 142.65-9.42L142.65-9.42Q141.81-9.42 140.99-9.22 140.16-9.03 139.35-8.85L139.35-8.85Q138.93-8.76 138.5-8.67 138.06-8.58 137.64-8.52L137.64-8.52Q137.46-8.49 137.29-8.47 137.13-8.46 136.95-8.4L136.95-8.4Q136.71-8.31 136.71-8.1L136.71-8.1 136.71 1.53Q136.71 1.86 136.23 2.05 135.75 2.25 135.13 2.35 134.52 2.46 133.94 2.49 133.35 2.52 133.11 2.52L133.11 2.52Q132.81 2.52 132.81 2.22L132.81 2.22 132.81-7.47Q132.78-7.56 132.74-7.67 132.69-7.77 132.54-7.77L132.54-7.77Q132.12-7.77 131.73-7.68 131.34-7.59 130.92-7.53L130.92-7.53Q130.17-7.38 129.45-7.27 128.73-7.17 128.01-6.99L128.01-6.99Q127.62-6.9 127.09-6.73 126.57-6.57 126.03-6.4 125.49-6.24 124.98-6.12 124.47-6 124.11-6L124.11-6Q123.93-6 123.54-6.51 123.15-7.02 122.76-7.68 122.37-8.34 122.07-8.96 121.77-9.57 121.77-9.78L121.77-9.78Q121.77-9.9 121.88-9.95 121.98-9.99 122.07-9.99L122.07-9.99 130.2-9.99Q130.62-9.99 131.31-10.65 132-11.31 132.79-12.31 133.59-13.32 134.44-14.5 135.3-15.69 136.06-16.72 136.83-17.76 137.41-18.51 138-19.26 138.3-19.38L138.3-19.38Q138.51-19.29 139.22-19.02 139.92-18.75 140.69-18.43 141.45-18.12 142.06-17.84 142.68-17.55 142.74-17.43ZM121.89 1.02L125.04-3.21Q125.16-3.36 125.5-3.82 125.85-4.29 126.24-4.8 126.63-5.31 126.97-5.71 127.32-6.12 127.44-6.12L127.44-6.12Q127.65-6.12 128.26-5.8 128.88-5.49 129.54-5.08 130.2-4.68 130.71-4.27 131.22-3.87 131.22-3.69L131.22-3.69Q131.22-3.57 130.68-3.21 130.14-2.85 129.3-2.37 128.46-1.89 127.45-1.36 126.45-0.84 125.53-0.38 124.62 0.09 123.89 0.43 123.15 0.78 122.88 0.9L122.88 0.9Q122.82 0.93 122.67 0.99 122.52 1.05 122.36 1.09 122.19 1.14 122.06 1.14 121.92 1.14 121.89 1.02L121.89 1.02ZM139.41-5.52L139.53-5.64Q140.58-5.61 141.88-5.33 143.19-5.04 144.33-4.44 145.47-3.84 146.25-2.91 147.03-1.98 147.03-0.69L147.03-0.69Q147.03-0.45 146.99-0.14 146.94 0.18 146.82 0.48 146.7 0.78 146.5 0.99 146.31 1.2 146.01 1.2L146.01 1.2 144.33 1.2Q144.18 1.2 143.99 0.94 143.79 0.69 143.73 0.57L143.73 0.57Q143.07-0.39 142.53-1.45 141.99-2.52 141.21-3.39L141.21-3.39Q141.12-3.48 140.82-3.79 140.52-4.11 140.19-4.47 139.86-4.83 139.62-5.13 139.38-5.43 139.41-5.52L139.41-5.52ZM151.2-19.92L151.32-20.04Q151.68-20.04 152.06-19.86 152.43-19.68 152.76-19.53 153.09-19.38 153.38-19.38 153.66-19.38 153.84-19.71L153.84-19.71Q153.9-19.86 153.94-20.2 153.99-20.55 154.02-20.73L154.02-20.73Q154.14-21.45 154.26-22.18 154.38-22.92 154.53-23.64L154.53-23.64Q154.59-23.97 154.62-24.33 154.65-24.69 154.77-25.02L154.77-25.02Q154.86-25.2 155.01-25.2L155.01-25.2Q155.31-25.2 155.85-25.05 156.39-24.9 156.97-24.69 157.56-24.48 158.12-24.25 158.67-24.03 159-23.91L159-23.91Q159.06-23.88 159.15-23.85 159.24-23.82 159.24-23.7L159.24-23.7Q159.24-23.64 159.12-23.58 159-23.52 158.87-23.45 158.73-23.37 158.58-23.29 158.43-23.22 158.4-23.19L158.4-23.19Q158.22-23.07 158.07-22.89 157.92-22.71 157.77-22.56L157.77-22.56Q157.23-22.02 156.71-21.46 156.18-20.91 155.61-20.4L155.61-20.4Q155.34-20.16 155.04-19.93 154.74-19.71 154.5-19.47L154.5-19.47Q154.26-19.26 154.38-18.99 154.5-18.72 154.74-18.4 154.98-18.09 155.21-17.76 155.43-17.43 155.43-17.1L155.43-17.1Q155.43-16.11 154.91-15.84 154.38-15.57 153.51-15.57L153.51-15.57Q153.36-15.57 153.16-15.6 152.97-15.63 152.85-15.75L152.85-15.75Q152.82-15.78 152.76-15.9L152.76-15.9Q152.52-16.35 152.41-16.83 152.31-17.31 152.13-17.79L152.13-17.79Q151.92-18.3 151.65-18.77 151.38-19.23 151.23-19.74L151.23-19.74Q151.2-19.8 151.2-19.92L151.2-19.92ZM160.95 2.22L160.86 2.16Q160.89 2.1 161.15 1.77 161.4 1.44 161.72 1.05 162.03 0.66 162.33 0.3 162.63-0.06 162.72-0.21L162.72-0.21Q163.56-1.44 164.1-2.63 164.64-3.81 164.94-5.05 165.24-6.3 165.34-7.6 165.45-8.91 165.45-10.38L165.45-10.38Q165.45-10.59 165.44-10.9 165.42-11.22 165.33-11.52 165.24-11.82 165.07-12.03 164.91-12.24 164.61-12.24L164.61-12.24Q164.31-12.24 164.13-12.06 163.95-11.88 163.77-11.85L163.77-11.85Q163.59-11.82 163.32-12.33 163.05-12.84 162.79-13.48 162.54-14.13 162.36-14.76 162.18-15.39 162.18-15.6L162.18-15.6Q162.18-15.9 162.45-15.9L162.45-15.9 165.75-15.9Q165.96-15.9 166.05-16.14L166.05-16.14Q166.08-16.23 166.25-16.88 166.41-17.52 166.57-18.29 166.74-19.05 166.88-19.71 167.01-20.37 167.01-20.46L167.01-20.46Q167.01-20.58 166.98-20.68 166.95-20.79 166.8-20.79L166.8-20.79 162.57-20.79Q162.27-20.79 162.27-21.03L162.27-21.03Q162.33-21.09 162.39-21.09L162.39-21.09 167.49-21.09Q167.85-21.09 167.85-21.7 167.85-22.32 167.79-23.05 167.73-23.79 167.73-24.4 167.73-25.02 168.09-25.02L168.09-25.02Q168.33-25.02 168.99-25.02 169.65-25.02 170.35-24.97 171.06-24.93 171.62-24.82 172.17-24.72 172.17-24.51L172.17-24.51Q172.17-24.33 171.99-24.16 171.81-24 171.81-23.79L171.81-23.79 171.81-21.51Q171.81-21.21 172.11-21.21L172.11-21.21 173.79-21.21Q174.03-21.21 174.31-21.57 174.6-21.93 174.87-22.36 175.14-22.8 175.4-23.16 175.65-23.52 175.8-23.52L175.8-23.52Q175.92-23.52 176.41-23.14 176.91-22.77 177.45-22.29 177.99-21.81 178.41-21.38 178.83-20.94 178.83-20.82L178.83-20.82Q178.83-20.76 178.74-20.73 178.65-20.7 178.59-20.7L178.59-20.7 171.93-20.7 171.72-20.61Q170.94-19.8 170.19-18.99 169.44-18.18 168.6-17.4L168.6-17.4Q168.54-17.34 168.21-17.1 167.88-16.86 167.58-16.59 167.28-16.32 167.13-16.09 166.98-15.87 167.31-15.84L167.31-15.84Q167.85-15.78 168.5-15.81 169.14-15.84 169.81-15.88 170.49-15.93 171.16-15.97 171.84-16.02 172.41-16.02L172.41-16.02Q172.74-16.02 173.13-15.97 173.52-15.93 173.85-16.02L173.85-16.02 174-16.17Q174-16.53 173.75-16.92 173.49-17.31 173.2-17.67 172.92-18.03 172.66-18.34 172.41-18.66 172.41-18.9L172.41-18.9Q172.41-18.96 172.5-18.99 172.59-19.02 172.65-19.02L172.65-19.02Q173.43-19.05 174.41-18.64 175.38-18.24 176.24-17.56 177.09-16.89 177.66-16.04 178.23-15.18 178.23-14.34L178.23-14.34Q178.23-12.18 176.1-12.18L176.1-12.18Q175.95-12.18 175.63-12.42 175.32-12.66 175.23-12.78L175.23-12.78Q175.08-12.96 174.97-13.39 174.87-13.83 174.74-14.28 174.6-14.73 174.44-15.07 174.27-15.42 174-15.42L174-15.42Q173.52-15.42 172.69-15.2 171.87-14.97 170.95-14.65 170.04-14.34 169.19-14.01 168.33-13.68 167.82-13.5L167.82-13.5Q167.7-13.44 167.37-13.32 167.04-13.2 166.66-13.06 166.29-12.93 165.99-12.81 165.69-12.69 165.66-12.66L165.66-12.66Q165.45-12.42 165.66-12.12L165.66-12.12Q165.69-12.09 165.91-12.06 166.14-12.03 166.17-12.03L166.17-12.03Q166.89-11.94 167.85-11.91 168.81-11.88 169.47-11.73L169.47-11.73Q169.53-11.7 169.63-11.68 169.74-11.67 169.74-11.55L169.74-11.55Q169.74-11.4 169.5-11.16 169.26-10.92 169.17-10.77L169.17-10.77Q169.11-10.65 169.09-10.41 169.08-10.17 169.06-9.9 169.05-9.63 169.03-9.36 169.02-9.09 168.99-8.91L168.99-8.91Q168.78-7.68 168.51-6.57 168.24-5.46 167.84-4.44 167.43-3.42 166.84-2.46 166.26-1.5 165.39-0.57L165.39-0.57Q165.12-0.27 164.53 0.2 163.95 0.66 163.28 1.11 162.6 1.56 161.97 1.89 161.34 2.22 160.95 2.22L160.95 2.22ZM159.33-14.94L159.33-14.94Q159.9-14.76 160.51-14.41 161.13-14.07 161.64-13.6 162.15-13.14 162.48-12.55 162.81-11.97 162.81-11.31L162.81-11.31Q162.81-10.44 162.41-10.05 162-9.66 161.49-9.57 160.98-9.48 160.53-9.63 160.08-9.78 159.99-9.99L159.99-9.99Q159.93-10.11 159.88-10.38 159.84-10.65 159.76-10.93 159.69-11.22 159.59-11.43 159.48-11.64 159.33-11.64L159.33-11.64Q159.21-11.64 159-11.61 158.79-11.58 158.79-11.4L158.79-11.4 158.79-8.79Q158.79-8.49 159.42-8.08 160.05-7.68 160.8-7.13 161.55-6.57 162.18-5.82 162.81-5.07 162.81-4.08L162.81-4.08Q162.81-3.3 162.48-2.83 162.15-2.37 161.31-2.37L161.31-2.37Q160.71-2.37 160.41-2.71 160.11-3.06 159.97-3.58 159.84-4.11 159.81-4.71 159.78-5.31 159.74-5.83 159.69-6.36 159.57-6.71 159.45-7.05 159.12-7.05L159.12-7.05Q159.03-7.05 158.87-6.85 158.7-6.66 158.7-6.6L158.7-6.6 158.7 1.8Q158.7 2.13 158.29 2.29 157.89 2.46 157.38 2.55 156.87 2.64 156.34 2.65 155.82 2.67 155.61 2.67L155.61 2.67Q155.31 2.67 155.31 2.37L155.31 2.37 155.31-4.98Q155.31-5.22 155.13-5.22L155.13-5.22Q154.83-5.22 154.5-4.81 154.17-4.41 153.84-3.81 153.51-3.21 153.18-2.5 152.85-1.8 152.52-1.2 152.19-0.6 151.86-0.2 151.53 0.21 151.23 0.21L151.23 0.21Q150.96 0.21 150.96-0.03L150.96-0.03Q150.96-1.38 151.26-2.69 151.56-3.99 151.8-5.34L151.8-5.34Q151.89-5.88 151.94-6.43 151.98-6.99 152.04-7.53L152.04-7.53Q152.04-7.59 152.07-7.68 152.1-7.77 152.16-7.77L152.16-7.77Q152.52-7.77 152.87-7.65 153.21-7.53 153.56-7.39 153.9-7.26 154.25-7.14 154.59-7.02 154.95-7.02L154.95-7.02Q155.07-7.02 155.13-7.11L155.13-7.11Q155.16-7.2 155.18-7.57 155.19-7.95 155.19-8.4 155.19-8.85 155.19-9.25 155.19-9.66 155.19-9.84L155.19-9.84Q155.19-10.11 154.89-10.11L154.89-10.11Q154.65-10.11 154.23-9.9 153.81-9.69 153.38-9.45 152.94-9.21 152.56-9.04 152.19-8.88 152.04-8.97L152.04-8.97Q151.98-9.18 151.78-9.63 151.59-10.08 151.38-10.56 151.17-11.04 151-11.43 150.84-11.82 150.84-11.97L150.84-11.97Q150.84-12.12 151-12.16 151.17-12.21 151.29-12.24L151.29-12.24Q151.59-12.27 152.07-12.22 152.55-12.18 153.04-12.16 153.54-12.15 153.97-12.22 154.41-12.3 154.59-12.6L154.59-12.6Q155.07-13.32 155.63-14.46 156.18-15.6 156.71-16.83 157.23-18.06 157.62-19.25 158.01-20.43 158.16-21.3L158.16-21.3 158.31-21.39Q158.43-21.36 158.93-21.16 159.42-20.97 159.97-20.73 160.53-20.49 161.03-20.28 161.52-20.07 161.64-19.98L161.64-19.98Q161.76-19.92 161.9-19.81 162.03-19.71 162.03-19.56L162.03-19.56Q162.03-19.41 161.96-19.34 161.88-19.26 161.79-19.17L161.79-19.17Q161.55-18.96 161-18.43 160.44-17.91 159.74-17.2 159.03-16.5 158.26-15.73 157.5-14.97 156.85-14.28 156.21-13.59 155.81-13.08 155.4-12.57 155.4-12.39L155.4-12.39Q155.4-12.24 155.58-12.21 155.76-12.18 155.85-12.18L155.85-12.18Q156.12-12.18 156.66-12.2 157.2-12.21 157.77-12.24 158.34-12.27 158.84-12.34 159.33-12.42 159.54-12.54L159.54-12.54 159.6-12.69Q159.57-13.26 159.28-13.74 159-14.22 159-14.67L159-14.67Q159-14.79 159.09-14.92 159.18-15.06 159.33-14.94ZM178.11-4.44L178.11-4.44Q178.17-4.41 178.23-4.27 178.29-4.14 178.32-3.97 178.35-3.81 178.38-3.66 178.41-3.51 178.41-3.42L178.41-3.42Q178.5-3.03 178.66-2.63 178.83-2.22 179-1.83 179.16-1.44 179.28-1.05 179.4-0.66 179.4-0.3L179.4-0.3Q179.4 0.63 178.8 1.11 178.2 1.59 177.34 1.78 176.49 1.98 175.56 1.99 174.63 2.01 174 2.01L174 2.01Q173.64 2.01 173.15 1.98 172.65 1.95 172.19 1.8 171.72 1.65 171.41 1.38 171.09 1.11 171.09 0.6L171.09 0.6 171.09-11.1Q171.09-11.25 170.93-11.49 170.76-11.73 170.76-11.94L170.76-11.94Q170.76-12.21 171.03-12.21L171.03-12.21Q171.21-12.21 171.81-12.16 172.41-12.12 173.07-12.06 173.73-12 174.28-11.92 174.84-11.85 174.96-11.79L174.96-11.79Q175.14-11.73 175.14-11.58L175.14-11.58Q175.05-11.49 174.84-11.26 174.63-11.04 174.6-10.89L174.6-10.89 174.6-2.19Q174.6-1.8 174.96-1.68 175.32-1.56 175.62-1.56L175.62-1.56Q176.46-1.56 176.85-1.95 177.24-2.34 177.45-2.83 177.66-3.33 177.76-3.79 177.87-4.26 178.11-4.44Z" transform="translate(-1.4700000286102295, 25.40999984741211)"/></g> <!----> <!----> <!----> <!----> <!----> <!----> <!----></g></g> <!----></g></g><defs v-gra="od"/></svg>